# xmcd CD database file
#
# Track frame offsets:
#	182
#	12347
#	25425
#	45485
#	61832
#	73277
#	87232
#	103685
#	117247
#	130277
#
# Disc length: 1930 seconds
#
# Revision: 2
# Processed by: cddbd v1.4PL0 Copyright (c) Steve Scherf et al.
# Submitted via: CDex 1.40Release
#
DISCID=8707880a
DTITLE=The Moffatts - The Moffatts
DYEAR=1995
DGENRE=Country
TTITLE0=I Think She Likes Me
TTITLE1=This Boy
TTITLE2=Guns Of Love
TTITLE3=Mama Never Told Me 'Bout You
TTITLE4=Just Thinkin' About You
TTITLE5=When God Made You
TTITLE6=Caterpillar Crawl
TTITLE7=You Are What You Do
TTITLE8=A Little Something
TTITLE9=Don't Judge This Book
EXTD=YEAR: 1995 ID3G: 2
EXTT0=
EXTT1=
EXTT2=
EXTT3=
EXTT4=
EXTT5=
EXTT6=
EXTT7=
EXTT8=
EXTT9=
PLAYORDER=
